<?xml version="1.0" standalone="no"?>
<!DOCTYPE svg PUBLIC "-//W3C//DTD SVG 20010904//EN"
 "http://www.w3.org/TR/2001/REC-SVG-20010904/DTD/svg10.dtd">
<svg version="1.0" xmlns="http://www.w3.org/2000/svg"
 width="512.000000pt" height="512.000000pt" viewBox="0 0 512.000000 512.000000"
 preserveAspectRatio="xMidYMid meet">
<metadata>
Created by potrace 1.14, written by Peter Selinger 2001-2017
</metadata>
<g transform="translate(0.000000,512.000000) scale(0.100000,-0.100000)"
fill="#000000" stroke="none">
<path d="M4190 4631 c-263 -301 -373 -449 -515 -696 -60 -104 -206 -387 -239
-465 -11 -25 -37 -85 -58 -135 -21 -49 -43 -99 -48 -110 -17 -36 -70 -175
-152 -395 -148 -403 -248 -613 -431 -915 -155 -255 -382 -490 -536 -554 -164
-69 -381 5 -657 224 l-96 77 -266 -75 c-147 -41 -276 -78 -287 -80 -11 -3 -87
-24 -170 -47 -82 -22 -157 -43 -165 -45 -322 -87 -480 -171 -543 -288 -18 -35
-22 -57 -21 -132 1 -109 19 -150 94 -218 83 -74 276 -156 455 -192 95 -19 299
-54 350 -60 33 -3 71 -8 85 -10 310 -46 1269 -74 1415 -41 150 33 245 87 365
206 171 169 272 341 546 930 221 476 356 723 532 974 106 151 152 199 214 227
76 33 182 32 259 -3 68 -31 137 -97 170 -164 l24 -49 3 -1070 2 -1070 146 1
c80 1 147 3 148 5 2 2 6 180 9 394 4 215 8 413 11 440 6 49 10 97 22 225 3 36
7 76 9 90 12 88 15 110 20 155 12 96 15 121 30 205 8 47 17 105 20 130 3 25 8
52 10 60 2 8 6 33 10 55 11 75 23 149 74 435 56 321 58 331 76 490 12 108 13
462 2 520 -3 14 -9 48 -13 75 -4 28 -8 55 -10 60 -77 340 -255 563 -594 743
-90 48 -254 122 -268 122 -4 0 -18 -13 -32 -29z"/>
</g>
</svg>
